<svg width="184" height="76" viewBox="0 0 184 76" fill="none" xmlns="http://www.w3.org/2000/svg">
<g clip-path="url(#clip0_2_9593)">
<path fill-rule="evenodd" clip-rule="evenodd" d="M57.8188 55.5434C56.3845 55.8079 55.2328 57.1206 55.5233 58.8225C55.7563 60.1894 57.1028 61.3992 58.7897 61.1056C60.1877 60.8621 61.4066 59.5468 61.09 57.808C60.8391 56.4312 59.504 55.233 57.8188 55.5434Z" fill="#6E6E71"/>
<path fill-rule="evenodd" clip-rule="evenodd" d="M57.7681 55.9822C54.5828 56.7779 55.8408 61.387 58.8512 60.6662C59.9666 60.3992 61.0075 59.2324 60.6492 57.7476C60.3893 56.671 59.218 55.6199 57.7681 55.9822Z" fill="white"/>
<path d="M57.0652 59.705V56.9392H58.2416C58.537 56.9392 58.7521 56.9641 58.8862 57.0137C59.0205 57.0633 59.1274 57.1518 59.2079 57.2785C59.2884 57.4061 59.329 57.5509 59.329 57.7142C59.329 57.9222 59.2686 58.0935 59.147 58.2287C59.0251 58.3639 58.8437 58.4489 58.6016 58.4844C58.7218 58.5544 58.821 58.6318 58.8989 58.7159C58.9775 58.8004 59.0829 58.9504 59.2156 59.1655L59.5529 59.705H58.8853L58.4851 59.1012C58.3414 58.8869 58.243 58.7514 58.1894 58.6955C58.1367 58.6403 58.0806 58.6014 58.0213 58.581C57.9615 58.5603 57.8674 58.5501 57.7387 58.5501H57.6253V59.705H57.0652ZM57.6253 58.1096H58.0389C58.3065 58.1096 58.4735 58.098 58.5404 58.0756C58.6067 58.0529 58.6594 58.0138 58.6968 57.9582C58.7348 57.903 58.7535 57.8335 58.7535 57.7505C58.7535 57.6569 58.7283 57.5824 58.6787 57.5245C58.6291 57.467 58.5591 57.431 58.4689 57.4163C58.4233 57.4097 58.2872 57.4066 58.0613 57.4066H57.6253V58.1096Z" fill="#6E6E71"/>
<path fill-rule="evenodd" clip-rule="evenodd" d="M33.9168 19.9722C33.1447 20.1253 31.343 20.7044 31.2035 20.7588C28.4151 21.8448 26.0229 23.4993 24.0786 25.7801C23.4612 26.5042 22.7752 27.1886 22.5227 28.1575C22.1862 29.4481 23.0151 30.3647 24.2889 29.9942C25.0262 29.7793 25.7083 29.3519 26.3908 28.9774C27.6296 28.2964 28.8034 27.4766 30.0898 26.9089C32.1664 25.9913 34.4177 25.7756 36.6324 26.0964C37.7728 26.2617 39.1995 26.6546 39.9036 27.0119C41.1049 27.6224 42.0602 28.5046 42.3697 29.9185C42.408 30.0931 42.6373 30.2822 42.8219 30.3616C44.9938 31.2916 46.8156 32.026 46.8156 35.0843C46.8156 35.5871 46.669 36.3238 46.3272 36.9673C46.2773 37.0614 46.1679 37.1612 46.1013 37.0791C45.5326 36.3801 45.5848 36.2249 44.7137 35.8281C41.5908 34.4054 38.3749 35.278 35.6734 37.4368C33.6637 39.0429 32.5823 41.2074 32.3904 43.7656C32.1205 47.3699 33.3632 50.3451 36.4045 52.3796C39.1793 54.2357 42.2308 54.3865 45.2866 53.2047C49.5334 51.5623 52.4061 48.4519 54.1579 44.3045C55.669 40.7278 55.9361 36.9976 54.9918 33.2517C53.5793 27.6467 50.1792 23.6028 44.9388 21.1602C42.6186 20.0785 40.2216 19.5799 37.7728 19.5799C36.4997 19.5799 35.214 19.7145 33.9168 19.9722Z" fill="#FF7D24"/>
<path fill-rule="evenodd" clip-rule="evenodd" d="M34.5773 30.4514C34.5498 30.5189 34.6005 30.5926 34.6731 30.5897C36.0887 30.537 37.4794 30.4846 38.8684 30.433C39.0149 30.427 39.0444 30.2227 38.9049 30.1756C38.1022 29.904 37.302 29.622 36.4895 29.3896C36.3033 29.3363 36.1293 29.3096 35.9657 29.3096C35.3455 29.3096 34.8863 29.692 34.5773 30.4514Z" fill="#FF7D24"/>
<path d="M23.203 23.2497C25.0345 21.4182 27.1987 19.9547 29.6348 18.8999C32.0615 17.8486 34.691 17.3154 37.4479 17.3154C38.7862 17.3154 40.0643 17.4353 41.241 17.6697C42.4253 17.9078 43.5538 18.2477 44.5938 18.6786C45.6386 19.1106 46.69 19.6537 47.715 20.2932C48.7423 20.9355 49.809 21.6751 50.8139 22.4288C51.0897 22.7077 51.4534 22.8543 51.861 22.8543C52.2598 22.8543 52.6303 22.7001 52.9654 22.3968C53.4039 21.9954 53.4966 21.5648 53.4966 21.274C53.4966 20.8649 53.3183 20.476 52.9526 20.1064C51.9361 19.1315 50.7988 18.2726 49.5751 17.5532C48.3653 16.8414 47.0755 16.226 45.7404 15.7226C44.409 15.2209 43.0183 14.8399 41.6075 14.5876C40.1987 14.337 38.7992 14.2106 37.4479 14.2106C34.2388 14.2106 31.1839 14.828 28.3626 16.0455C25.5455 17.261 23.0596 18.9351 20.9744 21.0214C18.8872 23.1077 17.214 25.5928 15.9993 28.4088C14.7807 31.2309 14.1633 34.2875 14.1633 37.4941C14.1633 40.7023 14.7807 43.7581 15.9993 46.5794C17.214 49.3956 18.8872 51.8816 20.9744 53.9679C23.0596 56.0539 25.5455 57.7281 28.3626 58.9439C31.1839 60.1619 34.2388 60.7787 37.4479 60.7787C40.2253 60.7787 43.0027 60.2909 45.7002 59.3274C48.416 58.3574 50.8538 56.8632 52.9634 54.8705C53.3183 54.5147 53.4966 54.1255 53.4966 53.7159C53.4966 53.3202 53.3378 52.9375 53.0382 52.6101C52.6394 52.1693 52.2071 52.0781 51.9163 52.0781C51.5103 52.0781 51.1291 52.2433 50.8649 52.5135C48.8568 54.1576 46.7456 55.4448 44.5918 56.3408C42.4624 57.2246 40.0598 57.6731 37.4479 57.6731C34.6887 57.6731 32.059 57.1396 29.6348 56.0896C27.1987 55.0357 25.0345 53.5725 23.203 51.7396C21.3687 49.9044 19.9052 47.7402 18.8538 45.3081C17.8024 42.881 17.2692 40.2525 17.2692 37.4941C17.2692 34.738 17.8024 32.1094 18.8538 29.6818C19.9052 27.2502 21.3687 25.086 23.203 23.2497Z" fill="#565656"/>
<path fill-rule="evenodd" clip-rule="evenodd" d="M76.5798 26.9472V37.2588H74.0212V26.9472H70.1284V24.6137H80.4723V26.9472H76.5798ZM89.1812 37.5012C87.9705 37.5012 86.7981 37.2565 85.7311 36.6723C84.7245 36.1213 83.9325 35.346 83.3687 34.3462C82.7822 33.3056 82.53 32.1613 82.53 30.971C82.53 29.7685 82.7856 28.6131 83.3775 27.5615C83.9453 26.5524 84.7418 25.7674 85.7566 25.2093C86.8216 24.6231 87.9881 24.3717 89.1985 24.3717C90.05 24.3717 90.8831 24.5182 91.6754 24.8314C92.456 25.1401 93.1573 25.5857 93.7741 26.1552L93.955 26.3222L92.4498 28.2475L92.2372 28.0544C91.8055 27.6633 91.3193 27.3279 90.7771 27.1099C90.2615 26.9024 89.7189 26.8089 89.1639 26.8089C88.4257 26.8089 87.71 26.9554 87.0628 27.3194C86.4545 27.6618 85.9877 28.1426 85.6523 28.7549C85.2886 29.4187 85.1401 30.149 85.1401 30.9018C85.1401 31.6638 85.2903 32.4031 85.6605 33.074C86.0038 33.6962 86.4812 34.1844 87.0988 34.5367C87.7508 34.9083 88.4688 35.0639 89.2158 35.0639C89.7869 35.0639 90.351 34.9778 90.8873 34.7779C91.4299 34.5758 91.9132 34.2572 92.3412 33.87L92.5541 33.6775L94.0565 35.5997L93.8807 35.7667C92.5816 37.0014 90.9565 37.5012 89.1812 37.5012Z" fill="#F17926"/>
<path d="M70.3953 24.8808H80.2052V26.6802H76.3126V36.9918H74.2881V26.6802H70.3953V24.8808ZM89.1811 37.2342C87.9352 37.2342 86.828 36.9688 85.8591 36.4382C84.8903 35.9075 84.1377 35.1666 83.6014 34.215C83.065 33.2634 82.7969 32.1822 82.7969 30.971C82.7969 29.7484 83.0679 28.6554 83.6101 27.6924C84.1521 26.7292 84.9104 25.9795 85.8852 25.4432C86.8598 24.9068 87.9642 24.6387 89.1984 24.6387C90.0403 24.6387 90.8334 24.7858 91.5772 25.0798C92.3213 25.374 92.9931 25.7978 93.5929 26.3517L92.4165 27.8569C91.9205 27.407 91.4071 27.0753 90.8765 26.8619C90.3461 26.6484 89.7752 26.5419 89.1638 26.5419C88.3219 26.5419 87.5778 26.7236 86.9318 27.087C86.286 27.4501 85.7815 27.9634 85.4181 28.6267C85.0547 29.2901 84.873 30.0483 84.873 30.9018C84.873 31.767 85.0575 32.534 85.4266 33.203C85.7959 33.872 86.309 34.3938 86.9664 34.7686C87.624 35.1436 88.3738 35.331 89.2157 35.331C89.85 35.331 90.4382 35.2301 90.9805 35.0282C91.5225 34.8264 92.0358 34.5064 92.5203 34.0679L93.6967 35.573C92.5319 36.6805 91.0264 37.2342 89.1811 37.2342Z" fill="#F17926"/>
<path fill-rule="evenodd" clip-rule="evenodd" d="M106.25 37.2976C105.398 37.2976 104.561 37.1582 103.763 36.8549C103.036 36.5785 102.355 36.1967 101.771 35.6791L101.601 35.5283L102.653 33.8725L102.884 34.0497C103.367 34.4188 103.899 34.7073 104.467 34.9208C105.046 35.1382 105.648 35.2456 106.266 35.2456C106.898 35.2456 107.531 35.1201 108.052 34.7453C108.49 34.4307 108.706 34.0177 108.706 33.4777C108.706 33.0204 108.536 32.6599 108.173 32.3795C107.665 31.9864 106.747 31.7916 106.127 31.6896C105.101 31.5206 103.872 31.2063 103.046 30.5416C102.321 29.9579 102.004 29.1628 102.004 28.2401C102.004 27.5476 102.188 26.9061 102.583 26.3366C102.978 25.766 103.511 25.3479 104.142 25.0613C104.827 24.7501 105.565 24.6205 106.315 24.6205C107.024 24.6205 107.732 24.7096 108.41 24.9247C109.082 25.1384 109.691 25.4874 110.237 25.931L110.434 26.0912L109.265 27.6896L109.048 27.5142C108.678 27.2162 108.259 27.0016 107.806 26.8605C107.337 26.7142 106.854 26.6388 106.363 26.6388C105.782 26.6388 105.19 26.7465 104.7 27.077C104.311 27.3395 104.101 27.6839 104.101 28.1568C104.101 28.561 104.27 28.8555 104.607 29.0755C105.132 29.4168 106.046 29.6143 106.654 29.7291C107.699 29.9264 108.994 30.2833 109.804 31.0107C110.516 31.6493 110.803 32.4997 110.803 33.4445C110.803 34.1824 110.63 34.8851 110.218 35.5025C109.814 36.1088 109.255 36.5453 108.59 36.841C107.853 37.169 107.054 37.2976 106.25 37.2976ZM115.792 37.2475C114.983 37.2475 114.208 37.07 113.507 36.6607C112.832 36.2667 112.312 35.7193 111.947 35.0285C111.567 34.3079 111.401 33.523 111.401 32.7106C111.401 31.884 111.573 31.0881 111.964 30.3573C112.34 29.6552 112.874 29.0999 113.564 28.7013C114.283 28.2855 115.077 28.1066 115.905 28.1066C116.715 28.1066 117.489 28.284 118.191 28.6934C118.865 29.0874 119.386 29.6347 119.75 30.3256C120.131 31.0464 120.297 31.831 120.297 32.6437C120.297 33.47 120.125 34.2663 119.733 34.9965C119.357 35.6989 118.823 36.2542 118.133 36.653C117.414 37.0686 116.62 37.2475 115.792 37.2475ZM124.168 28.29H126.601V30.175H124.168V37.0641H122.135V30.175H120.588V28.29H122.135V27.9734C122.135 27.0875 122.336 26.2023 122.956 25.539C123.543 24.9122 124.308 24.6537 125.157 24.6537C125.855 24.6537 126.52 24.811 127.117 25.1767L127.32 25.3006L126.589 26.8846L126.342 26.7607C126.01 26.5935 125.658 26.5056 125.286 26.5056C124.969 26.5056 124.677 26.5858 124.465 26.8307C124.217 27.1153 124.168 27.5791 124.168 27.9399V28.29ZM128.229 30.1419H126.667V28.29H128.229V26.0999L130.246 25.8729V28.29H132.663V30.1419H130.246V34.0282C130.246 34.3414 130.286 34.7425 130.482 35.0016C130.649 35.2233 130.922 35.2791 131.187 35.2791C131.52 35.2791 131.853 35.1677 132.149 35.0226L132.418 34.8913L133.052 36.6729L132.827 36.7738C132.251 37.0326 131.643 37.1809 131.01 37.1809C130.222 37.1809 129.466 36.9728 128.932 36.3645C128.382 35.7369 128.229 34.8709 128.229 34.0616V30.1419ZM136.71 34.3176C136.946 33.4706 137.207 32.6298 137.477 31.7973L138.567 28.29H140.282L141.355 31.7811C141.608 32.606 141.877 33.451 142.109 34.2943C142.337 33.4578 142.59 32.623 142.842 31.7984L143.915 28.29H146.044L143.162 37.0641H141.047L140.312 34.6393C140.011 33.6435 139.702 32.6412 139.42 31.636C139.128 32.6398 138.804 33.6446 138.503 34.6393L137.769 37.0641H135.638L132.739 28.29H134.919L135.958 31.7837C136.209 32.6276 136.465 33.4714 136.71 34.3176ZM151.908 36.1601C151.671 36.4022 151.392 36.6017 151.076 36.7605C150.494 37.0524 149.874 37.1976 149.224 37.1976C148.373 37.1976 147.569 36.9873 146.887 36.4674C146.179 35.9279 145.896 35.1538 145.896 34.2785C145.896 33.6838 146.034 33.1137 146.379 32.6233C146.706 32.1604 147.14 31.8248 147.662 31.6054C148.2 31.3789 148.77 31.2757 149.353 31.2757C150.16 31.2757 150.978 31.3959 151.712 31.7335V31.6096C151.712 31.1246 151.575 30.6969 151.156 30.4236C150.685 30.1158 150.099 30.0251 149.546 30.0251C149.16 30.0251 148.773 30.0806 148.398 30.1682C148.006 30.2595 147.62 30.3797 147.25 30.5376L146.978 30.6538L146.434 28.8935L146.65 28.7971C147.594 28.3747 148.591 28.1398 149.627 28.1398C150.659 28.1398 151.741 28.3246 152.594 28.9411C153.467 29.571 153.744 30.5742 153.744 31.6096V37.0641H151.905V36.797C151.905 36.5864 151.905 36.3733 151.908 36.1601ZM157.34 29.0599C157.485 28.9034 157.651 28.7631 157.833 28.6375C158.338 28.2889 158.914 28.1398 159.523 28.1398C159.923 28.1398 160.326 28.1902 160.706 28.3212L160.949 28.4051L160.368 30.323L160.093 30.2031C159.888 30.1135 159.632 30.0917 159.41 30.0917C158.835 30.0917 158.366 30.2958 157.996 30.7383C157.577 31.2389 157.438 31.8699 157.438 32.5102V37.0641H155.405V28.29H157.341V28.557C157.341 28.7237 157.341 28.8915 157.34 29.0599ZM162.854 33.5279C162.932 34.008 163.139 34.427 163.521 34.7612C163.988 35.1688 164.552 35.329 165.166 35.329C165.605 35.329 166.034 35.2465 166.448 35.1022C166.872 34.9537 167.249 34.7258 167.577 34.4176L167.8 34.2073L168.862 35.7034L168.712 35.8627C168.257 36.3458 167.7 36.6859 167.076 36.907C166.45 37.129 165.799 37.2475 165.134 37.2475C164.332 37.2475 163.56 37.076 162.865 36.6689C162.196 36.2777 161.683 35.7304 161.321 35.0452C160.933 34.3108 160.775 33.5035 160.775 32.6772C160.775 31.8531 160.939 31.0535 161.33 30.3241C161.698 29.6376 162.217 29.0894 162.888 28.6939C163.586 28.2829 164.36 28.1066 165.166 28.1066C166.286 28.1066 167.284 28.4533 168.059 29.2745C168.9 30.1662 169.155 31.3863 169.155 32.5771C169.155 32.8104 169.139 33.0477 169.122 33.2807L169.104 33.5279H162.854ZM115.825 35.2958C116.278 35.2958 116.707 35.1943 117.096 34.9591C117.47 34.7329 117.755 34.4262 117.956 34.0384C118.172 33.6245 118.264 33.1758 118.264 32.7106C118.264 32.2338 118.171 31.7735 117.955 31.3466C117.755 30.9534 117.474 30.6357 117.101 30.4012C116.722 30.1637 116.303 30.0585 115.857 30.0585C115.407 30.0585 114.98 30.1583 114.595 30.3944C114.222 30.6226 113.942 30.9344 113.742 31.3228C113.53 31.7361 113.433 32.1794 113.433 32.6437C113.433 33.1205 113.526 33.5811 113.743 34.0075C113.941 34.3989 114.219 34.7184 114.59 34.9537C114.965 35.1921 115.381 35.2958 115.825 35.2958ZM151.741 33.6333C151.45 33.4689 151.129 33.3496 150.81 33.2591C150.428 33.1506 150.026 33.0774 149.627 33.0774C149.189 33.0774 148.735 33.1528 148.362 33.3935C148.061 33.5877 147.928 33.8553 147.928 34.2119C147.928 34.569 148.059 34.8409 148.357 35.0407C148.7 35.27 149.088 35.3624 149.498 35.3624C150.071 35.3624 150.589 35.2057 151.041 34.8522C151.445 34.5364 151.661 34.1231 151.741 33.6333ZM162.896 31.7262H167.191C167.125 31.274 166.957 30.8485 166.607 30.5316C166.188 30.1535 165.655 30.0251 165.102 30.0251C164.539 30.0251 164.024 30.1733 163.59 30.5379C163.218 30.8505 163.007 31.2689 162.896 31.7262Z" fill="#565656"/>
<path d="M106.25 37.0305C105.402 37.0305 104.604 36.8888 103.858 36.605C103.111 36.3216 102.475 35.9463 101.948 35.4791L102.722 34.2616C103.216 34.6398 103.766 34.9428 104.373 35.1707C104.98 35.3986 105.611 35.5126 106.266 35.5126C107.051 35.5126 107.698 35.3292 108.208 34.9621C108.718 34.5953 108.973 34.1003 108.973 33.4776C108.973 32.9328 108.761 32.4962 108.337 32.1683C107.913 31.84 107.19 31.5928 106.17 31.4259C104.827 31.2036 103.842 30.8394 103.213 30.3334C102.585 29.8274 102.271 29.1295 102.271 28.24C102.271 27.5841 102.448 27.0001 102.803 26.4885C103.157 25.9771 103.64 25.5822 104.252 25.3042C104.865 25.0264 105.552 24.8875 106.315 24.8875C107.045 24.8875 107.716 24.9844 108.329 25.1792C108.941 25.3736 109.521 25.6934 110.069 26.1381L109.215 27.306C108.828 26.9947 108.385 26.7612 107.886 26.6055C107.386 26.4496 106.879 26.3717 106.363 26.3717C105.633 26.3717 105.029 26.533 104.551 26.8556C104.072 27.1781 103.833 27.6118 103.833 28.1567C103.833 28.6459 104.043 29.0269 104.462 29.2993C104.881 29.5717 105.595 29.8025 106.605 29.9915C108.012 30.2583 109.019 30.6642 109.626 31.209C110.232 31.7541 110.536 32.4991 110.536 33.4444C110.536 34.1783 110.356 34.815 109.996 35.3541C109.636 35.8935 109.131 36.3077 108.482 36.5968C107.832 36.886 107.088 37.0305 106.25 37.0305ZM115.792 36.9803C114.987 36.9803 114.27 36.7969 113.641 36.4299C113.013 36.0631 112.527 35.5545 112.183 34.9037C111.84 34.2534 111.668 33.5221 111.668 32.7105C111.668 31.8873 111.845 31.1452 112.199 30.4836C112.554 29.822 113.053 29.3047 113.698 28.9322C114.342 28.5598 115.078 28.3735 115.905 28.3735C116.711 28.3735 117.428 28.5569 118.056 28.924C118.684 29.2908 119.17 29.7996 119.514 30.4502C119.858 31.1007 120.03 31.8318 120.03 32.6436C120.03 33.4665 119.852 34.2089 119.498 34.8705C119.144 35.5321 118.644 36.0492 118 36.4216C117.355 36.7941 116.619 36.9803 115.792 36.9803ZM115.825 35.5627C116.351 35.5627 116.821 35.4375 117.234 35.1874C117.648 34.9371 117.967 34.5953 118.193 34.1616C118.419 33.7279 118.531 33.244 118.531 32.7105C118.531 32.1654 118.419 31.6705 118.193 31.2257C117.967 30.781 117.65 30.4306 117.242 30.1749C116.834 29.9192 116.372 29.7914 115.857 29.7914C115.331 29.7914 114.863 29.9164 114.455 30.1667C114.047 30.4167 113.73 30.7614 113.504 31.2008C113.279 31.6399 113.166 32.1209 113.166 32.6436C113.166 33.1884 113.279 33.6834 113.504 34.1281C113.73 34.5729 114.044 34.9232 114.447 35.1792C114.85 35.4349 115.309 35.5627 115.825 35.5627ZM125.286 26.2385C124.846 26.2385 124.505 26.3774 124.263 26.6554C124.021 26.9335 123.901 27.3615 123.901 27.9398V28.5569H126.333V29.9079H123.901V36.7969H122.402V29.9079H120.855V28.5569H122.402V27.9733C122.402 27.0058 122.652 26.2552 123.151 25.7211C123.651 25.1874 124.319 24.9206 125.157 24.9206C125.845 24.9206 126.451 25.0819 126.978 25.4042L126.462 26.5219C126.086 26.3329 125.694 26.2385 125.286 26.2385ZM132.717 36.5302C132.148 36.7859 131.579 36.9137 131.01 36.9137C130.183 36.9137 129.557 36.6719 129.133 36.1881C128.708 35.7045 128.496 34.9955 128.496 34.0615V29.8747H126.934V28.5569H128.496V26.3385L129.979 26.1716V28.5569H132.395V29.8747H129.979V34.0281C129.979 34.5284 130.075 34.9065 130.269 35.1625C130.462 35.4182 130.768 35.546 131.187 35.546C131.52 35.546 131.88 35.4513 132.266 35.2623L132.717 36.5302ZM135.831 36.7969L133.108 28.5569H134.719L135.702 31.8596C136.089 33.1272 136.422 34.2616 136.701 35.2623H136.733C136.98 34.2948 137.313 33.1663 137.732 31.8763L138.763 28.5569H140.084L141.099 31.8596C141.583 33.4053 141.91 34.5397 142.082 35.2623H142.131C142.292 34.6174 142.614 33.4889 143.097 31.8763L144.112 28.5569H145.675L142.968 36.7969H141.245L140.568 34.5618C140.052 32.8829 139.676 31.5928 139.44 30.692H139.408C139.225 31.3703 138.839 32.6603 138.248 34.5618L137.571 36.7969H135.831ZM149.627 28.4067C150.808 28.4067 151.745 28.657 152.438 29.1573C153.131 29.6579 153.477 30.4751 153.477 31.6095V36.7969H152.172C152.172 36.1521 152.183 35.6682 152.204 35.3459H152.172C151.904 35.8573 151.498 36.2493 150.956 36.5217C150.413 36.7941 149.836 36.9305 149.224 36.9305C148.365 36.9305 147.64 36.7054 147.049 36.255C146.458 35.8045 146.163 35.1458 146.163 34.2784C146.163 33.689 146.308 33.1884 146.598 32.7771C146.888 32.3655 147.277 32.0569 147.766 31.8513C148.254 31.6455 148.783 31.5426 149.353 31.5426C150.405 31.5426 151.281 31.7541 151.979 32.1765V31.6095C151.979 30.9644 151.753 30.4947 151.302 30.1999C150.851 29.9054 150.266 29.758 149.546 29.758C149.17 29.758 148.767 29.8078 148.338 29.9079C147.908 30.0083 147.511 30.1358 147.145 30.2917L146.759 29.0408C147.704 28.6181 148.66 28.4067 149.627 28.4067ZM149.498 35.6294C150.153 35.6294 150.722 35.4403 151.205 35.0621C151.689 34.684 151.963 34.1616 152.027 33.4943C151.716 33.2942 151.334 33.1301 150.883 33.0022C150.432 32.8744 150.013 32.8103 149.627 32.8103C149.057 32.8103 148.587 32.9299 148.217 33.1689C147.846 33.4081 147.661 33.7557 147.661 34.2118C147.661 34.6676 147.843 35.0179 148.209 35.2623C148.574 35.5072 149.004 35.6294 149.498 35.6294ZM155.672 36.7969V28.5569H157.074C157.074 29.1907 157.063 29.6636 157.042 29.9748H157.074C157.246 29.5301 157.549 29.1573 157.984 28.8571C158.419 28.5569 158.932 28.4067 159.523 28.4067C159.931 28.4067 160.297 28.4625 160.619 28.5736L160.2 29.9581C159.995 29.8691 159.732 29.8246 159.41 29.8246C158.744 29.8246 158.205 30.072 157.791 30.567C157.377 31.0616 157.171 31.7096 157.171 32.5101V36.7969H155.672ZM168.888 32.577C168.888 32.7437 168.877 32.9716 168.856 33.2607H162.556C162.599 33.9725 162.862 34.5397 163.345 34.9621C163.829 35.3847 164.436 35.5959 165.166 35.5959C165.617 35.5959 166.074 35.5154 166.536 35.3541C166.997 35.1931 167.406 34.9456 167.76 34.612L168.517 35.6795C168.109 36.1132 167.599 36.4384 166.987 36.6552C166.375 36.8721 165.757 36.9803 165.134 36.9803C164.328 36.9803 163.617 36.7998 162.999 36.4384C162.381 36.0769 161.901 35.571 161.557 34.9204C161.213 34.2699 161.041 33.5221 161.041 32.6771C161.041 31.8428 161.216 31.1007 161.565 30.4502C161.914 29.7996 162.4 29.2908 163.023 28.924C163.646 28.5569 164.361 28.3735 165.166 28.3735C166.283 28.3735 167.183 28.7349 167.865 29.4578C168.547 30.1806 168.888 31.2203 168.888 32.577ZM165.102 29.758C164.436 29.758 163.874 29.9496 163.418 30.3334C162.961 30.7169 162.68 31.2702 162.572 31.9931H167.486C167.443 31.2702 167.21 30.7169 166.785 30.3334C166.361 29.9496 165.8 29.758 165.102 29.758Z" fill="#565656"/>
<path d="M75.796 45.6591V52H75.0529L71.5976 47.0214H71.5357V52H70.7678V45.6591H71.5109L74.9786 50.6501H75.0405V45.6591H75.796ZM79.2273 52.0991C78.7691 52.0991 78.3738 51.9979 78.0415 51.7957C77.7112 51.5913 77.4563 51.3065 77.2767 50.9411C77.0992 50.5737 77.0105 50.1464 77.0105 49.6593C77.0105 49.1722 77.0992 48.7429 77.2767 48.3713C77.4563 47.9977 77.7061 47.7067 78.026 47.4982C78.348 47.2877 78.7237 47.1824 79.153 47.1824C79.4007 47.1824 79.6453 47.2237 79.8868 47.3062C80.1283 47.3888 80.3481 47.523 80.5463 47.7087C80.7444 47.8924 80.9023 48.136 81.02 48.4394C81.1376 48.7429 81.1964 49.1165 81.1964 49.5602V49.8699H77.5306V49.2382H80.4534C80.4534 48.9699 80.3997 48.7305 80.2924 48.5199C80.1871 48.3094 80.0364 48.1432 79.8403 48.0215C79.6463 47.8997 79.4172 47.8388 79.153 47.8388C78.8619 47.8388 78.6101 47.911 78.3975 48.0555C78.187 48.1979 78.025 48.3837 77.9114 48.6128C77.7979 48.8419 77.7411 49.0876 77.7411 49.3497V49.7708C77.7411 50.1299 77.8031 50.4344 77.9269 50.6841C78.0528 50.9318 78.2272 51.1207 78.4502 51.2507C78.6731 51.3787 78.9321 51.4427 79.2273 51.4427C79.4193 51.4427 79.5926 51.4159 79.7474 51.3622C79.9043 51.3065 80.0395 51.2239 80.153 51.1145C80.2666 51.003 80.3543 50.8647 80.4162 50.6996L81.1221 50.8978C81.0478 51.1372 80.9229 51.3477 80.7475 51.5294C80.5721 51.709 80.3553 51.8493 80.0973 51.9505C79.8393 52.0495 79.5493 52.0991 79.2273 52.0991ZM79.4502 45.5352L80.7134 46.6622H79.8218L79.1158 46.0059L78.4099 46.6622H77.5182L78.7691 45.5352H79.4502ZM77.2458 44.7798L77.8402 45.9068H77.2086L76.3293 44.7798H77.2458ZM83.0386 49.1392V52H82.308V47.2443H83.0139V47.9874H83.0758C83.1873 47.7459 83.3565 47.5519 83.5836 47.4053C83.8106 47.2567 84.1037 47.1824 84.4629 47.1824C84.7849 47.1824 85.0666 47.2484 85.3081 47.3805C85.5496 47.5106 85.7375 47.7087 85.8716 47.975C86.0058 48.2392 86.0729 48.5736 86.0729 48.9782V52H85.3422V49.0277C85.3422 48.6541 85.2452 48.3631 85.0511 48.1546C84.8571 47.944 84.5909 47.8388 84.2523 47.8388C84.0191 47.8388 83.8106 47.8893 83.6269 47.9905C83.4453 48.0916 83.3018 48.2392 83.1966 48.4332C83.0913 48.6273 83.0386 48.8626 83.0386 49.1392ZM91.9285 47.2443V47.8635H89.4639V47.2443H91.9285ZM90.1822 46.1049H90.9129V50.6377C90.9129 50.8441 90.9429 50.9989 91.0027 51.1021C91.0646 51.2033 91.1431 51.2714 91.238 51.3065C91.335 51.3395 91.4372 51.356 91.5445 51.356C91.625 51.356 91.6911 51.3519 91.7427 51.3436C91.7943 51.3333 91.8356 51.325 91.8665 51.3188L92.0152 51.9752C91.9656 51.9938 91.8965 52.0124 91.8077 52.031C91.719 52.0516 91.6065 52.0619 91.4702 52.0619C91.2638 52.0619 91.0615 52.0175 90.8634 51.9288C90.6673 51.84 90.5042 51.7048 90.3742 51.5232C90.2462 51.3416 90.1822 51.1124 90.1822 50.8358V46.1049ZM94.4271 52.1115C94.1257 52.1115 93.8522 52.0547 93.6066 51.9412C93.3609 51.8256 93.1659 51.6594 93.0214 51.4427C92.8769 51.2239 92.8047 50.9597 92.8047 50.6501C92.8047 50.3776 92.8583 50.1568 92.9657 49.9875C93.073 49.8162 93.2165 49.682 93.396 49.585C93.5756 49.488 93.7738 49.4157 93.9905 49.3683C94.2093 49.3187 94.4291 49.2795 94.65 49.2506C94.9389 49.2135 95.1732 49.1856 95.3528 49.167C95.5344 49.1464 95.6665 49.1123 95.7491 49.0649C95.8337 49.0174 95.876 48.9348 95.876 48.8172V48.7924C95.876 48.4869 95.7925 48.2495 95.6253 48.0803C95.4601 47.911 95.2093 47.8264 94.8729 47.8264C94.5241 47.8264 94.2506 47.9028 94.0524 48.0555C93.8543 48.2083 93.7149 48.3713 93.6344 48.5447L92.9409 48.297C93.0647 48.008 93.2299 47.783 93.4363 47.622C93.6448 47.459 93.8718 47.3455 94.1174 47.2815C94.3651 47.2154 94.6087 47.1824 94.8481 47.1824C95.0009 47.1824 95.1763 47.201 95.3745 47.2381C95.5747 47.2732 95.7677 47.3465 95.9535 47.458C96.1413 47.5694 96.2971 47.7376 96.421 47.9626C96.5448 48.1876 96.6067 48.489 96.6067 48.8667V52H95.876V51.356H95.8389C95.7894 51.4592 95.7068 51.5696 95.5912 51.6873C95.4756 51.8049 95.3218 51.9051 95.1299 51.9876C94.9379 52.0702 94.7036 52.1115 94.4271 52.1115ZM94.5385 51.4551C94.8275 51.4551 95.0711 51.3983 95.2692 51.2848C95.4694 51.1713 95.6201 51.0247 95.7212 50.8451C95.8244 50.6656 95.876 50.4767 95.876 50.2785V49.6098C95.8451 49.6469 95.777 49.681 95.6717 49.7119C95.5685 49.7408 95.4488 49.7666 95.3125 49.7894C95.1784 49.81 95.0473 49.8286 94.9193 49.8451C94.7934 49.8595 94.6913 49.8719 94.6128 49.8822C94.4229 49.907 94.2454 49.9473 94.0803 50.003C93.9172 50.0567 93.7851 50.1382 93.684 50.2476C93.5849 50.3549 93.5354 50.5015 93.5354 50.6872C93.5354 50.9411 93.6293 51.1331 93.8171 51.2631C94.007 51.3911 94.2475 51.4551 94.5385 51.4551ZM95.2197 46.6003H94.6128V45.9316C94.8296 45.9192 94.9823 45.8892 95.0711 45.8418C95.1619 45.7943 95.2073 45.721 95.2073 45.6219C95.2073 45.5105 95.1423 45.4289 95.0122 45.3773C94.8822 45.3257 94.7243 45.2999 94.5385 45.2999L94.5633 44.8293C94.9906 44.8293 95.3136 44.9036 95.5324 45.0522C95.7532 45.2009 95.8637 45.399 95.8637 45.6467C95.8637 45.8572 95.7966 46.011 95.6624 46.108C95.5282 46.205 95.3807 46.2659 95.2197 46.2907V46.6003ZM98.6711 49.1392V52H97.9404V47.2443H98.6463V47.9874H98.7082C98.8197 47.7459 98.989 47.5519 99.216 47.4053C99.4431 47.2567 99.7362 47.1824 100.095 47.1824C100.417 47.1824 100.699 47.2484 100.941 47.3805C101.182 47.5106 101.37 47.7087 101.504 47.975C101.638 48.2392 101.705 48.5736 101.705 48.9782V52H100.975V49.0277C100.975 48.6541 100.878 48.3631 100.684 48.1546C100.49 47.944 100.223 47.8388 99.8848 47.8388C99.6515 47.8388 99.4431 47.8893 99.2594 47.9905C99.0777 48.0916 98.9343 48.2392 98.829 48.4332C98.7237 48.6273 98.6711 48.8626 98.6711 49.1392ZM104.96 53.8825C104.607 53.8825 104.304 53.837 104.05 53.7462C103.796 53.6575 103.584 53.5398 103.415 53.3933C103.248 53.2488 103.115 53.094 103.016 52.9288L103.598 52.5202C103.664 52.6068 103.747 52.7059 103.849 52.8174C103.95 52.9309 104.088 53.029 104.264 53.1115C104.441 53.1961 104.673 53.2385 104.96 53.2385C105.344 53.2385 105.661 53.1456 105.911 52.9598C106.16 52.774 106.285 52.483 106.285 52.0867V51.1207H106.223C106.17 51.2074 106.093 51.3147 105.994 51.4427C105.897 51.5686 105.757 51.6811 105.573 51.7802C105.392 51.8772 105.146 51.9257 104.836 51.9257C104.452 51.9257 104.108 51.8349 103.802 51.6532C103.499 51.4716 103.258 51.2074 103.081 50.8606C102.905 50.5138 102.818 50.0928 102.818 49.5974C102.818 49.1103 102.903 48.6861 103.075 48.3249C103.246 47.9616 103.484 47.6809 103.79 47.4827C104.095 47.2825 104.448 47.1824 104.849 47.1824C105.158 47.1824 105.404 47.234 105.586 47.3372C105.769 47.4383 105.91 47.5539 106.007 47.684C106.106 47.8119 106.182 47.9172 106.236 47.9998H106.31V47.2443H107.016V52.1362C107.016 52.5449 106.923 52.8772 106.737 53.1332C106.554 53.3912 106.306 53.5801 105.994 53.6998C105.685 53.8216 105.34 53.8825 104.96 53.8825ZM104.935 51.2693C105.228 51.2693 105.476 51.2022 105.678 51.0681C105.881 50.9339 106.035 50.7409 106.14 50.4891C106.245 50.2373 106.298 49.9359 106.298 49.585C106.298 49.2424 106.246 48.94 106.143 48.6778C106.04 48.4157 105.887 48.2103 105.685 48.0617C105.482 47.9131 105.233 47.8388 104.935 47.8388C104.626 47.8388 104.368 47.9172 104.161 48.0741C103.957 48.231 103.803 48.4415 103.7 48.7057C103.599 48.9699 103.548 49.263 103.548 49.585C103.548 49.9153 103.6 50.2073 103.703 50.4612C103.808 50.713 103.963 50.9112 104.168 51.0557C104.374 51.1981 104.63 51.2693 104.935 51.2693ZM112.601 52.0991C112.205 52.0991 111.855 51.999 111.552 51.7988C111.248 51.5965 111.011 51.3116 110.84 50.9442C110.668 50.5747 110.583 50.1382 110.583 49.6345C110.583 49.135 110.668 48.7016 110.84 48.3342C111.011 47.9668 111.249 47.6829 111.555 47.4827C111.86 47.2825 112.213 47.1824 112.614 47.1824C112.923 47.1824 113.168 47.234 113.348 47.3372C113.529 47.4383 113.668 47.5539 113.762 47.684C113.86 47.8119 113.935 47.9172 113.989 47.9998H114.05V45.6591H114.781V52H114.075V51.2693H113.989C113.935 51.356 113.858 51.4654 113.759 51.5975C113.66 51.7275 113.519 51.8442 113.335 51.9474C113.152 52.0485 112.907 52.0991 112.601 52.0991ZM112.701 51.4427C112.994 51.4427 113.241 51.3663 113.444 51.2136C113.646 51.0588 113.8 50.8451 113.905 50.5727C114.01 50.2982 114.063 49.9813 114.063 49.6222C114.063 49.2671 114.011 48.9565 113.908 48.6902C113.805 48.4219 113.652 48.2134 113.45 48.0648C113.247 47.9141 112.998 47.8388 112.701 47.8388C112.391 47.8388 112.133 47.9182 111.926 48.0772C111.722 48.2341 111.568 48.4477 111.465 48.7181C111.364 48.9864 111.313 49.2878 111.313 49.6222C111.313 49.9607 111.365 50.2682 111.468 50.5448C111.574 50.8193 111.728 51.0381 111.933 51.2012C112.139 51.3622 112.395 51.4427 112.701 51.4427ZM112.738 46.8356V46.2659H115.462V46.8356H112.738ZM118.215 52.0991C117.757 52.0991 117.361 51.9979 117.029 51.7957C116.699 51.5913 116.444 51.3065 116.264 50.9411C116.087 50.5737 115.998 50.1464 115.998 49.6593C115.998 49.1722 116.087 48.7429 116.264 48.3713C116.444 47.9977 116.694 47.7067 117.013 47.4982C117.335 47.2877 117.711 47.1824 118.14 47.1824C118.388 47.1824 118.633 47.2237 118.874 47.3062C119.116 47.3888 119.336 47.523 119.534 47.7087C119.732 47.8924 119.89 48.136 120.007 48.4394C120.125 48.7429 120.184 49.1165 120.184 49.5602V49.8699H116.518V49.2382H119.441C119.441 48.9699 119.387 48.7305 119.28 48.5199C119.175 48.3094 119.024 48.1432 118.828 48.0215C118.634 47.8997 118.405 47.8388 118.14 47.8388C117.849 47.8388 117.598 47.911 117.385 48.0555C117.174 48.1979 117.012 48.3837 116.899 48.6128C116.785 48.8419 116.729 49.0876 116.729 49.3497V49.7708C116.729 50.1299 116.791 50.4344 116.914 50.6841C117.04 50.9318 117.215 51.1207 117.438 51.2507C117.661 51.3787 117.92 51.4427 118.215 51.4427C118.407 51.4427 118.58 51.4159 118.735 51.3622C118.892 51.3065 119.027 51.2239 119.14 51.1145C119.254 51.003 119.342 50.8647 119.404 50.6996L120.11 50.8978C120.035 51.1372 119.91 51.3477 119.735 51.5294C119.56 51.709 119.343 51.8493 119.085 51.9505C118.827 52.0495 118.537 52.0991 118.215 52.0991ZM118.524 45.6096L119.701 46.7366H118.933L118.091 45.9563L117.261 46.7366H116.493L117.67 45.6096H118.524ZM119.825 46.1421H119.305V45.5724C119.478 45.56 119.606 45.5373 119.689 45.5043C119.771 45.4692 119.812 45.4052 119.812 45.3123C119.812 45.2132 119.757 45.1431 119.645 45.1018C119.536 45.0605 119.397 45.0399 119.23 45.0399L119.255 44.6312C119.627 44.6312 119.907 44.6941 120.097 44.82C120.287 44.9459 120.382 45.1142 120.382 45.3247C120.382 45.5105 120.324 45.6457 120.209 45.7303C120.095 45.8129 119.967 45.8634 119.825 45.882V46.1421ZM125.816 47.2443V47.8635H123.351V47.2443H125.816ZM124.07 46.1049H124.8V50.6377C124.8 50.8441 124.83 50.9989 124.89 51.1021C124.952 51.2033 125.03 51.2714 125.125 51.3065C125.222 51.3395 125.325 51.356 125.432 51.356C125.512 51.356 125.578 51.3519 125.63 51.3436C125.682 51.3333 125.723 51.325 125.754 51.3188L125.902 51.9752C125.853 51.9938 125.784 52.0124 125.695 52.031C125.606 52.0516 125.494 52.0619 125.358 52.0619C125.151 52.0619 124.949 52.0175 124.751 51.9288C124.555 51.84 124.392 51.7048 124.262 51.5232C124.134 51.3416 124.07 51.1124 124.07 50.8358V46.1049ZM127.748 49.1392V52H127.017V45.6591H127.748V47.9874H127.81C127.921 47.7418 128.088 47.5467 128.311 47.4022C128.536 47.2557 128.836 47.1824 129.209 47.1824C129.533 47.1824 129.817 47.2474 130.061 47.3775C130.304 47.5054 130.493 47.7025 130.627 47.9688C130.763 48.233 130.832 48.5695 130.832 48.9782V52H130.101V49.0277C130.101 48.65 130.003 48.3579 129.807 48.1515C129.613 47.943 129.343 47.8388 128.999 47.8388C128.759 47.8388 128.545 47.8893 128.355 47.9905C128.167 48.0916 128.018 48.2392 127.909 48.4332C127.801 48.6273 127.748 48.8626 127.748 49.1392ZM133.568 52.1115C133.266 52.1115 132.993 52.0547 132.747 51.9412C132.502 51.8256 132.307 51.6594 132.162 51.4427C132.018 51.2239 131.945 50.9597 131.945 50.6501C131.945 50.3776 131.999 50.1568 132.106 49.9875C132.214 49.8162 132.357 49.682 132.537 49.585C132.716 49.488 132.914 49.4157 133.131 49.3683C133.35 49.3187 133.57 49.2795 133.791 49.2506C134.08 49.2135 134.314 49.1856 134.494 49.167C134.675 49.1464 134.807 49.1123 134.89 49.0649C134.974 49.0174 135.017 48.9348 135.017 48.8172V48.7924C135.017 48.4869 134.933 48.2495 134.766 48.0803C134.601 47.911 134.35 47.8264 134.014 47.8264C133.665 47.8264 133.391 47.9028 133.193 48.0555C132.995 48.2083 132.856 48.3713 132.775 48.5447L132.082 48.297C132.205 48.008 132.371 47.783 132.577 47.622C132.785 47.459 133.013 47.3455 133.258 47.2815C133.506 47.2154 133.749 47.1824 133.989 47.1824C134.142 47.1824 134.317 47.201 134.515 47.2381C134.715 47.2732 134.908 47.3465 135.094 47.458C135.282 47.5694 135.438 47.7376 135.562 47.9626C135.686 48.1876 135.747 48.489 135.747 48.8667V52H135.017V51.356H134.98C134.93 51.4592 134.848 51.5696 134.732 51.6873C134.616 51.8049 134.463 51.9051 134.271 51.9876C134.079 52.0702 133.844 52.1115 133.568 52.1115ZM133.679 51.4551C133.968 51.4551 134.212 51.3983 134.41 51.2848C134.61 51.1713 134.761 51.0247 134.862 50.8451C134.965 50.6656 135.017 50.4767 135.017 50.2785V49.6098C134.986 49.6469 134.918 49.681 134.812 49.7119C134.709 49.7408 134.589 49.7666 134.453 49.7894C134.319 49.81 134.188 49.8286 134.06 49.8451C133.934 49.8595 133.832 49.8719 133.754 49.8822C133.564 49.907 133.386 49.9473 133.221 50.003C133.058 50.0567 132.926 50.1382 132.825 50.2476C132.726 50.3549 132.676 50.5015 132.676 50.6872C132.676 50.9411 132.77 51.1331 132.958 51.2631C133.148 51.3911 133.388 51.4551 133.679 51.4551ZM133.729 46.6003L132.763 45.1637H133.617L134.373 46.6003H133.729ZM137.812 49.1392V52H137.081V47.2443H137.787V47.9874H137.849C137.96 47.7459 138.13 47.5519 138.357 47.4053C138.584 47.2567 138.877 47.1824 139.236 47.1824C139.558 47.1824 139.84 47.2484 140.081 47.3805C140.323 47.5106 140.511 47.7087 140.645 47.975C140.779 48.2392 140.846 48.5736 140.846 48.9782V52H140.115V49.0277C140.115 48.6541 140.018 48.3631 139.824 48.1546C139.63 47.944 139.364 47.8388 139.026 47.8388C138.792 47.8388 138.584 47.8893 138.4 47.9905C138.218 48.0916 138.075 48.2392 137.97 48.4332C137.864 48.6273 137.812 48.8626 137.812 49.1392ZM142.912 49.1392V52H142.181V45.6591H142.912V47.9874H142.974C143.085 47.7418 143.253 47.5467 143.475 47.4022C143.7 47.2557 144 47.1824 144.373 47.1824C144.697 47.1824 144.981 47.2474 145.225 47.3775C145.468 47.5054 145.657 47.7025 145.791 47.9688C145.928 48.233 145.996 48.5695 145.996 48.9782V52H145.265V49.0277C145.265 48.65 145.167 48.3579 144.971 48.1515C144.777 47.943 144.507 47.8388 144.163 47.8388C143.923 47.8388 143.709 47.8893 143.519 47.9905C143.331 48.0916 143.182 48.2392 143.073 48.4332C142.966 48.6273 142.912 48.8626 142.912 49.1392ZM151.717 52.0991C151.271 52.0991 150.887 51.9938 150.565 51.7833C150.243 51.5727 149.995 51.2827 149.822 50.9133C149.648 50.5438 149.562 50.1217 149.562 49.6469C149.562 49.1639 149.65 48.7377 149.828 48.3682C150.008 47.9967 150.257 47.7067 150.577 47.4982C150.899 47.2877 151.275 47.1824 151.704 47.1824C152.039 47.1824 152.34 47.2443 152.608 47.3682C152.877 47.492 153.096 47.6654 153.268 47.8883C153.439 48.1112 153.545 48.3713 153.587 48.6685H152.856C152.8 48.4518 152.676 48.2599 152.484 48.0927C152.295 47.9234 152.039 47.8388 151.717 47.8388C151.432 47.8388 151.182 47.9131 150.967 48.0617C150.755 48.2083 150.589 48.4157 150.469 48.684C150.351 48.9503 150.292 49.263 150.292 49.6222C150.292 49.9896 150.35 50.3095 150.466 50.582C150.583 50.8544 150.749 51.066 150.961 51.2167C151.176 51.3674 151.428 51.4427 151.717 51.4427C151.907 51.4427 152.079 51.4097 152.234 51.3436C152.388 51.2776 152.52 51.1826 152.627 51.0588C152.734 50.9349 152.811 50.7863 152.856 50.6129H153.587C153.545 50.8936 153.443 51.1465 153.28 51.3715C153.119 51.5944 152.906 51.7719 152.639 51.904C152.375 52.0341 152.068 52.0991 151.717 52.0991ZM156.587 52.0991C156.158 52.0991 155.781 51.9969 155.457 51.7926C155.135 51.5882 154.883 51.3023 154.701 50.9349C154.522 50.5675 154.432 50.1382 154.432 49.6469C154.432 49.1515 154.522 48.7191 154.701 48.3496C154.883 47.9802 155.135 47.6933 155.457 47.4889C155.781 47.2846 156.158 47.1824 156.587 47.1824C157.016 47.1824 157.392 47.2846 157.714 47.4889C158.038 47.6933 158.29 47.9802 158.469 48.3496C158.651 48.7191 158.742 49.1515 158.742 49.6469C158.742 50.1382 158.651 50.5675 158.469 50.9349C158.29 51.3023 158.038 51.5882 157.714 51.7926C157.392 51.9969 157.016 52.0991 156.587 52.0991ZM156.587 51.4427C156.913 51.4427 157.181 51.3591 157.392 51.1919C157.602 51.0247 157.758 50.8049 157.859 50.5324C157.961 50.26 158.011 49.9648 158.011 49.6469C158.011 49.3291 157.961 49.0329 157.859 48.7583C157.758 48.4838 157.602 48.2619 157.392 48.0927C157.181 47.9234 156.913 47.8388 156.587 47.8388C156.261 47.8388 155.992 47.9234 155.782 48.0927C155.571 48.2619 155.415 48.4838 155.314 48.7583C155.213 49.0329 155.163 49.3291 155.163 49.6469C155.163 49.9648 155.213 50.26 155.314 50.5324C155.415 50.8049 155.571 51.0247 155.782 51.1919C155.992 51.3591 156.261 51.4427 156.587 51.4427ZM157.231 46.6746L156.587 45.8077L155.943 46.6746H155.249V46.6251L156.252 45.3371H156.921L157.924 46.6251V46.6746H157.231ZM160.588 49.1392V52H159.857V47.2443H160.563V47.9874H160.625C160.736 47.7459 160.906 47.5519 161.133 47.4053C161.36 47.2567 161.653 47.1824 162.012 47.1824C162.334 47.1824 162.616 47.2484 162.857 47.3805C163.099 47.5106 163.287 47.7087 163.421 47.975C163.555 48.2392 163.622 48.5736 163.622 48.9782V52H162.891V49.0277C162.891 48.6541 162.794 48.3631 162.6 48.1546C162.406 47.944 162.14 47.8388 161.802 47.8388C161.568 47.8388 161.36 47.8893 161.176 47.9905C160.994 48.0916 160.851 48.2392 160.746 48.4332C160.64 48.6273 160.588 48.8626 160.588 49.1392ZM166.877 53.8825C166.524 53.8825 166.221 53.837 165.967 53.7462C165.713 53.6575 165.501 53.5398 165.332 53.3933C165.165 53.2488 165.032 53.094 164.933 52.9288L165.515 52.5202C165.581 52.6068 165.664 52.7059 165.765 52.8174C165.867 52.9309 166.005 53.029 166.18 53.1115C166.358 53.1961 166.59 53.2385 166.877 53.2385C167.261 53.2385 167.578 53.1456 167.827 52.9598C168.077 52.774 168.202 52.483 168.202 52.0867V51.1207H168.14C168.086 51.2074 168.01 51.3147 167.911 51.4427C167.814 51.5686 167.674 51.6811 167.49 51.7802C167.308 51.8772 167.063 51.9257 166.753 51.9257C166.369 51.9257 166.024 51.8349 165.719 51.6532C165.416 51.4716 165.175 51.2074 164.998 50.8606C164.822 50.5138 164.734 50.0928 164.734 49.5974C164.734 49.1103 164.82 48.6861 164.991 48.3249C165.163 47.9616 165.401 47.6809 165.707 47.4827C166.012 47.2825 166.365 47.1824 166.765 47.1824C167.075 47.1824 167.321 47.234 167.502 47.3372C167.686 47.4383 167.826 47.5539 167.923 47.684C168.022 47.8119 168.099 47.9172 168.153 47.9998H168.227V47.2443H168.933V52.1362C168.933 52.5449 168.84 52.8772 168.654 53.1332C168.47 53.3912 168.223 53.5801 167.911 53.6998C167.601 53.8216 167.257 53.8825 166.877 53.8825ZM166.852 51.2693C167.145 51.2693 167.393 51.2022 167.595 51.0681C167.797 50.9339 167.951 50.7409 168.057 50.4891C168.162 50.2373 168.214 49.9359 168.214 49.585C168.214 49.2424 168.163 48.94 168.06 48.6778C167.956 48.4157 167.804 48.2103 167.601 48.0617C167.399 47.9131 167.149 47.8388 166.852 47.8388C166.543 47.8388 166.284 47.9172 166.078 48.0741C165.874 48.231 165.72 48.4415 165.617 48.7057C165.516 48.9699 165.465 49.263 165.465 49.585C165.465 49.9153 165.517 50.2073 165.62 50.4612C165.725 50.713 165.88 50.9112 166.084 51.0557C166.291 51.1981 166.547 51.2693 166.852 51.2693Z" fill="#565656"/>
</g>
<defs>
<clipPath id="clip0_2_9593">
<rect width="183.339" height="75.2854" fill="white"/>
</clipPath>
</defs>
</svg>
